<?xml version="1.0" encoding="utf-8" standalone="no"?>
<!DOCTYPE svg PUBLIC "-//W3C//DTD SVG 1.1//EN"
  "http://www.w3.org/Graphics/SVG/1.1/DTD/svg11.dtd">
<!-- Created with matplotlib (http://matplotlib.org/) -->
<svg height="345.6pt" version="1.1" viewBox="0 0 460.8 345.6" width="460.8pt" xmlns="http://www.w3.org/2000/svg" xmlns:xlink="http://www.w3.org/1999/xlink">
 <defs>
  <style type="text/css">
*{stroke-linecap:butt;stroke-linejoin:round;}
  </style>
 </defs>
 <g id="figure_1">
  <g id="patch_1">
   <path d="M 0 345.6 
L 460.8 345.6 
L 460.8 0 
L 0 0 
z
" style="fill:#ffffff;"/>
  </g>
  <g id="axes_1">
   <g id="patch_2">
    <path d="M 57.6 307.584 
L 414.72 307.584 
L 414.72 41.472 
L 57.6 41.472 
z
" style="fill:#ffffff;"/>
   </g>
   <g id="matplotlib.axis_1">
    <g id="xtick_1">
     <g id="line2d_1">
      <defs>
       <path d="M 0 0 
L 0 3.5 
" id="m595522399b" style="stroke:#000000;stroke-width:0.8;"/>
      </defs>
      <g>
       <use style="stroke:#000000;stroke-width:0.8;" x="125.828551" xlink:href="#m595522399b" y="307.584"/>
      </g>
     </g>
     <g id="text_1">
      <!-- 0.5 -->
      <defs>
       <path d="M 31.78125 66.40625 
Q 24.171875 66.40625 20.328125 58.90625 
Q 16.5 51.421875 16.5 36.375 
Q 16.5 21.390625 20.328125 13.890625 
Q 24.171875 6.390625 31.78125 6.390625 
Q 39.453125 6.390625 43.28125 13.890625 
Q 47.125 21.390625 47.125 36.375 
Q 47.125 51.421875 43.28125 58.90625 
Q 39.453125 66.40625 31.78125 66.40625 
z
M 31.78125 74.21875 
Q 44.046875 74.21875 50.515625 64.515625 
Q 56.984375 54.828125 56.984375 36.375 
Q 56.984375 17.96875 50.515625 8.265625 
Q 44.046875 -1.421875 31.78125 -1.421875 
Q 19.53125 -1.421875 13.0625 8.265625 
Q 6.59375 17.96875 6.59375 36.375 
Q 6.59375 54.828125 13.0625 64.515625 
Q 19.53125 74.21875 31.78125 74.21875 
z
" id="DejaVuSans-30"/>
       <path d="M 10.6875 12.40625 
L 21 12.40625 
L 21 0 
L 10.6875 0 
z
" id="DejaVuSans-2e"/>
       <path d="M 10.796875 72.90625 
L 49.515625 72.90625 
L 49.515625 64.59375 
L 19.828125 64.59375 
L 19.828125 46.734375 
Q 21.96875 47.46875 24.109375 47.828125 
Q 26.265625 48.1875 28.421875 48.1875 
Q 40.625 48.1875 47.75 41.5 
Q 54.890625 34.8125 54.890625 23.390625 
Q 54.890625 11.625 47.5625 5.09375 
Q 40.234375 -1.421875 26.90625 -1.421875 
Q 22.3125 -1.421875 17.546875 -0.640625 
Q 12.796875 0.140625 7.71875 1.703125 
L 7.71875 11.625 
Q 12.109375 9.234375 16.796875 8.0625 
Q 21.484375 6.890625 26.703125 6.890625 
Q 35.15625 6.890625 40.078125 11.328125 
Q 45.015625 15.765625 45.015625 23.390625 
Q 45.015625 31 40.078125 35.4375 
Q 35.15625 39.890625 26.703125 39.890625 
Q 22.75 39.890625 18.8125 39.015625 
Q 14.890625 38.140625 10.796875 36.28125 
z
" id="DejaVuSans-35"/>
      </defs>
      <g transform="translate(117.876988 322.182437)scale(0.1 -0.1)">
       <use xlink:href="#DejaVuSans-30"/>
       <use x="63.623047" xlink:href="#DejaVuSans-2e"/>
       <use x="95.410156" xlink:href="#DejaVuSans-35"/>
      </g>
     </g>
    </g>
    <g id="xtick_2">
     <g id="line2d_2">
      <g>
       <use style="stroke:#000000;stroke-width:0.8;" x="201.58436" xlink:href="#m595522399b" y="307.584"/>
      </g>
     </g>
     <g id="text_2">
      <!-- 1.0 -->
      <defs>
       <path d="M 12.40625 8.296875 
L 28.515625 8.296875 
L 28.515625 63.921875 
L 10.984375 60.40625 
L 10.984375 69.390625 
L 28.421875 72.90625 
L 38.28125 72.90625 
L 38.28125 8.296875 
L 54.390625 8.296875 
L 54.390625 0 
L 12.40625 0 
z
" id="DejaVuSans-31"/>
      </defs>
      <g transform="translate(193.632798 322.182437)scale(0.1 -0.1)">
       <use xlink:href="#DejaVuSans-31"/>
       <use x="63.623047" xlink:href="#DejaVuSans-2e"/>
       <use x="95.410156" xlink:href="#DejaVuSans-30"/>
      </g>
     </g>
    </g>
    <g id="xtick_3">
     <g id="line2d_3">
      <g>
       <use style="stroke:#000000;stroke-width:0.8;" x="277.34017" xlink:href="#m595522399b" y="307.584"/>
      </g>
     </g>
     <g id="text_3">
      <!-- 1.5 -->
      <g transform="translate(269.388607 322.182437)scale(0.1 -0.1)">
       <use xlink:href="#DejaVuSans-31"/>
       <use x="63.623047" xlink:href="#DejaVuSans-2e"/>
       <use x="95.410156" xlink:href="#DejaVuSans-35"/>
      </g>
     </g>
    </g>
    <g id="xtick_4">
     <g id="line2d_4">
      <g>
       <use style="stroke:#000000;stroke-width:0.8;" x="353.095979" xlink:href="#m595522399b" y="307.584"/>
      </g>
     </g>
     <g id="text_4">
      <!-- 2.0 -->
      <defs>
       <path d="M 19.1875 8.296875 
L 53.609375 8.296875 
L 53.609375 0 
L 7.328125 0 
L 7.328125 8.296875 
Q 12.9375 14.109375 22.625 23.890625 
Q 32.328125 33.6875 34.8125 36.53125 
Q 39.546875 41.84375 41.421875 45.53125 
Q 43.3125 49.21875 43.3125 52.78125 
Q 43.3125 58.59375 39.234375 62.25 
Q 35.15625 65.921875 28.609375 65.921875 
Q 23.96875 65.921875 18.8125 64.3125 
Q 13.671875 62.703125 7.8125 59.421875 
L 7.8125 69.390625 
Q 13.765625 71.78125 18.9375 73 
Q 24.125 74.21875 28.421875 74.21875 
Q 39.75 74.21875 46.484375 68.546875 
Q 53.21875 62.890625 53.21875 53.421875 
Q 53.21875 48.921875 51.53125 44.890625 
Q 49.859375 40.875 45.40625 35.40625 
Q 44.1875 33.984375 37.640625 27.21875 
Q 31.109375 20.453125 19.1875 8.296875 
z
" id="DejaVuSans-32"/>
      </defs>
      <g transform="translate(345.144417 322.182437)scale(0.1 -0.1)">
       <use xlink:href="#DejaVuSans-32"/>
       <use x="63.623047" xlink:href="#DejaVuSans-2e"/>
       <use x="95.410156" xlink:href="#DejaVuSans-30"/>
      </g>
     </g>
    </g>
    <g id="text_5">
     <!-- Custo [USD] -->
     <defs>
      <path d="M 64.40625 67.28125 
L 64.40625 56.890625 
Q 59.421875 61.53125 53.78125 63.8125 
Q 48.140625 66.109375 41.796875 66.109375 
Q 29.296875 66.109375 22.65625 58.46875 
Q 16.015625 50.828125 16.015625 36.375 
Q 16.015625 21.96875 22.65625 14.328125 
Q 29.296875 6.6875 41.796875 6.6875 
Q 48.140625 6.6875 53.78125 8.984375 
Q 59.421875 11.28125 64.40625 15.921875 
L 64.40625 5.609375 
Q 59.234375 2.09375 53.4375 0.328125 
Q 47.65625 -1.421875 41.21875 -1.421875 
Q 24.65625 -1.421875 15.125 8.703125 
Q 5.609375 18.84375 5.609375 36.375 
Q 5.609375 53.953125 15.125 64.078125 
Q 24.65625 74.21875 41.21875 74.21875 
Q 47.75 74.21875 53.53125 72.484375 
Q 59.328125 70.75 64.40625 67.28125 
z
" id="DejaVuSans-43"/>
      <path d="M 8.5 21.578125 
L 8.5 54.6875 
L 17.484375 54.6875 
L 17.484375 21.921875 
Q 17.484375 14.15625 20.5 10.265625 
Q 23.53125 6.390625 29.59375 6.390625 
Q 36.859375 6.390625 41.078125 11.03125 
Q 45.3125 15.671875 45.3125 23.6875 
L 45.3125 54.6875 
L 54.296875 54.6875 
L 54.296875 0 
L 45.3125 0 
L 45.3125 8.40625 
Q 42.046875 3.421875 37.71875 1 
Q 33.40625 -1.421875 27.6875 -1.421875 
Q 18.265625 -1.421875 13.375 4.4375 
Q 8.5 10.296875 8.5 21.578125 
z
M 31.109375 56 
z
" id="DejaVuSans-75"/>
      <path d="M 44.28125 53.078125 
L 44.28125 44.578125 
Q 40.484375 46.53125 36.375 47.5 
Q 32.28125 48.484375 27.875 48.484375 
Q 21.1875 48.484375 17.84375 46.4375 
Q 14.5 44.390625 14.5 40.28125 
Q 14.5 37.15625 16.890625 35.375 
Q 19.28125 33.59375 26.515625 31.984375 
L 29.59375 31.296875 
Q 39.15625 29.25 43.1875 25.515625 
Q 47.21875 21.78125 47.21875 15.09375 
Q 47.21875 7.46875 41.1875 3.015625 
Q 35.15625 -1.421875 24.609375 -1.421875 
Q 20.21875 -1.421875 15.453125 -0.5625 
Q 10.6875 0.296875 5.421875 2 
L 5.421875 11.28125 
Q 10.40625 8.6875 15.234375 7.390625 
Q 20.0625 6.109375 24.8125 6.109375 
Q 31.15625 6.109375 34.5625 8.28125 
Q 37.984375 10.453125 37.984375 14.40625 
Q 37.984375 18.0625 35.515625 20.015625 
Q 33.0625 21.96875 24.703125 23.78125 
L 21.578125 24.515625 
Q 13.234375 26.265625 9.515625 29.90625 
Q 5.8125 33.546875 5.8125 39.890625 
Q 5.8125 47.609375 11.28125 51.796875 
Q 16.75 56 26.8125 56 
Q 31.78125 56 36.171875 55.265625 
Q 40.578125 54.546875 44.28125 53.078125 
z
" id="DejaVuSans-73"/>
      <path d="M 18.3125 70.21875 
L 18.3125 54.6875 
L 36.8125 54.6875 
L 36.8125 47.703125 
L 18.3125 47.703125 
L 18.3125 18.015625 
Q 18.3125 11.328125 20.140625 9.421875 
Q 21.96875 7.515625 27.59375 7.515625 
L 36.8125 7.515625 
L 36.8125 0 
L 27.59375 0 
Q 17.1875 0 13.234375 3.875 
Q 9.28125 7.765625 9.28125 18.015625 
L 9.28125 47.703125 
L 2.6875 47.703125 
L 2.6875 54.6875 
L 9.28125 54.6875 
L 9.28125 70.21875 
z
" id="DejaVuSans-74"/>
      <path d="M 30.609375 48.390625 
Q 23.390625 48.390625 19.1875 42.75 
Q 14.984375 37.109375 14.984375 27.296875 
Q 14.984375 17.484375 19.15625 11.84375 
Q 23.34375 6.203125 30.609375 6.203125 
Q 37.796875 6.203125 41.984375 11.859375 
Q 46.1875 17.53125 46.1875 27.296875 
Q 46.1875 37.015625 41.984375 42.703125 
Q 37.796875 48.390625 30.609375 48.390625 
z
M 30.609375 56 
Q 42.328125 56 49.015625 48.375 
Q 55.71875 40.765625 55.71875 27.296875 
Q 55.71875 13.875 49.015625 6.21875 
Q 42.328125 -1.421875 30.609375 -1.421875 
Q 18.84375 -1.421875 12.171875 6.21875 
Q 5.515625 13.875 5.515625 27.296875 
Q 5.515625 40.765625 12.171875 48.375 
Q 18.84375 56 30.609375 56 
z
" id="DejaVuSans-6f"/>
      <path id="DejaVuSans-20"/>
      <path d="M 8.59375 75.984375 
L 29.296875 75.984375 
L 29.296875 69 
L 17.578125 69 
L 17.578125 -6.203125 
L 29.296875 -6.203125 
L 29.296875 -13.1875 
L 8.59375 -13.1875 
z
" id="DejaVuSans-5b"/>
      <path d="M 8.6875 72.90625 
L 18.609375 72.90625 
L 18.609375 28.609375 
Q 18.609375 16.890625 22.84375 11.734375 
Q 27.09375 6.59375 36.625 6.59375 
Q 46.09375 6.59375 50.34375 11.734375 
Q 54.59375 16.890625 54.59375 28.609375 
L 54.59375 72.90625 
L 64.5 72.90625 
L 64.5 27.390625 
Q 64.5 13.140625 57.4375 5.859375 
Q 50.390625 -1.421875 36.625 -1.421875 
Q 22.796875 -1.421875 15.734375 5.859375 
Q 8.6875 13.140625 8.6875 27.390625 
z
" id="DejaVuSans-55"/>
      <path d="M 53.515625 70.515625 
L 53.515625 60.890625 
Q 47.90625 63.578125 42.921875 64.890625 
Q 37.9375 66.21875 33.296875 66.21875 
Q 25.25 66.21875 20.875 63.09375 
Q 16.5 59.96875 16.5 54.203125 
Q 16.5 49.359375 19.40625 46.890625 
Q 22.3125 44.4375 30.421875 42.921875 
L 36.375 41.703125 
Q 47.40625 39.59375 52.65625 34.296875 
Q 57.90625 29 57.90625 20.125 
Q 57.90625 9.515625 50.796875 4.046875 
Q 43.703125 -1.421875 29.984375 -1.421875 
Q 24.8125 -1.421875 18.96875 -0.25 
Q 13.140625 0.921875 6.890625 3.21875 
L 6.890625 13.375 
Q 12.890625 10.015625 18.65625 8.296875 
Q 24.421875 6.59375 29.984375 6.59375 
Q 38.421875 6.59375 43.015625 9.90625 
Q 47.609375 13.234375 47.609375 19.390625 
Q 47.609375 24.75 44.3125 27.78125 
Q 41.015625 30.8125 33.5 32.328125 
L 27.484375 33.5 
Q 16.453125 35.6875 11.515625 40.375 
Q 6.59375 45.0625 6.59375 53.421875 
Q 6.59375 63.09375 13.40625 68.65625 
Q 20.21875 74.21875 32.171875 74.21875 
Q 37.3125 74.21875 42.625 73.28125 
Q 47.953125 72.359375 53.515625 70.515625 
z
" id="DejaVuSans-53"/>
      <path d="M 19.671875 64.796875 
L 19.671875 8.109375 
L 31.59375 8.109375 
Q 46.6875 8.109375 53.6875 14.9375 
Q 60.6875 21.78125 60.6875 36.53125 
Q 60.6875 51.171875 53.6875 57.984375 
Q 46.6875 64.796875 31.59375 64.796875 
z
M 9.8125 72.90625 
L 30.078125 72.90625 
Q 51.265625 72.90625 61.171875 64.09375 
Q 71.09375 55.28125 71.09375 36.53125 
Q 71.09375 17.671875 61.125 8.828125 
Q 51.171875 0 30.078125 0 
L 9.8125 0 
z
" id="DejaVuSans-44"/>
      <path d="M 30.421875 75.984375 
L 30.421875 -13.1875 
L 9.71875 -13.1875 
L 9.71875 -6.203125 
L 21.390625 -6.203125 
L 21.390625 69 
L 9.71875 69 
L 9.71875 75.984375 
z
" id="DejaVuSans-5d"/>
     </defs>
     <g transform="translate(205.701406 335.860562)scale(0.1 -0.1)">
      <use xlink:href="#DejaVuSans-43"/>
      <use x="69.824219" xlink:href="#DejaVuSans-75"/>
      <use x="133.203125" xlink:href="#DejaVuSans-73"/>
      <use x="185.302734" xlink:href="#DejaVuSans-74"/>
      <use x="224.511719" xlink:href="#DejaVuSans-6f"/>
      <use x="285.693359" xlink:href="#DejaVuSans-20"/>
      <use x="317.480469" xlink:href="#DejaVuSans-5b"/>
      <use x="356.494141" xlink:href="#DejaVuSans-55"/>
      <use x="429.6875" xlink:href="#DejaVuSans-53"/>
      <use x="493.164062" xlink:href="#DejaVuSans-44"/>
      <use x="570.166016" xlink:href="#DejaVuSans-5d"/>
     </g>
    </g>
   </g>
   <g id="matplotlib.axis_2">
    <g id="ytick_1">
     <g id="line2d_5">
      <defs>
       <path d="M 0 0 
L -3.5 0 
" id="m7ea517848f" style="stroke:#000000;stroke-width:0.8;"/>
      </defs>
      <g>
       <use style="stroke:#000000;stroke-width:0.8;" x="57.6" xlink:href="#m7ea517848f" y="277.525159"/>
      </g>
     </g>
     <g id="text_6">
      <!-- 1400 -->
      <defs>
       <path d="M 37.796875 64.3125 
L 12.890625 25.390625 
L 37.796875 25.390625 
z
M 35.203125 72.90625 
L 47.609375 72.90625 
L 47.609375 25.390625 
L 58.015625 25.390625 
L 58.015625 17.1875 
L 47.609375 17.1875 
L 47.609375 0 
L 37.796875 0 
L 37.796875 17.1875 
L 4.890625 17.1875 
L 4.890625 26.703125 
z
" id="DejaVuSans-34"/>
      </defs>
      <g transform="translate(25.15 281.324378)scale(0.1 -0.1)">
       <use xlink:href="#DejaVuSans-31"/>
       <use x="63.623047" xlink:href="#DejaVuSans-34"/>
       <use x="127.246094" xlink:href="#DejaVuSans-30"/>
       <use x="190.869141" xlink:href="#DejaVuSans-30"/>
      </g>
     </g>
    </g>
    <g id="ytick_2">
     <g id="line2d_6">
      <g>
       <use style="stroke:#000000;stroke-width:0.8;" x="57.6" xlink:href="#m7ea517848f" y="245.165337"/>
      </g>
     </g>
     <g id="text_7">
      <!-- 1500 -->
      <g transform="translate(25.15 248.964555)scale(0.1 -0.1)">
       <use xlink:href="#DejaVuSans-31"/>
       <use x="63.623047" xlink:href="#DejaVuSans-35"/>
       <use x="127.246094" xlink:href="#DejaVuSans-30"/>
       <use x="190.869141" xlink:href="#DejaVuSans-30"/>
      </g>
     </g>
    </g>
    <g id="ytick_3">
     <g id="line2d_7">
      <g>
       <use style="stroke:#000000;stroke-width:0.8;" x="57.6" xlink:href="#m7ea517848f" y="212.805514"/>
      </g>
     </g>
     <g id="text_8">
      <!-- 1600 -->
      <defs>
       <path d="M 33.015625 40.375 
Q 26.375 40.375 22.484375 35.828125 
Q 18.609375 31.296875 18.609375 23.390625 
Q 18.609375 15.53125 22.484375 10.953125 
Q 26.375 6.390625 33.015625 6.390625 
Q 39.65625 6.390625 43.53125 10.953125 
Q 47.40625 15.53125 47.40625 23.390625 
Q 47.40625 31.296875 43.53125 35.828125 
Q 39.65625 40.375 33.015625 40.375 
z
M 52.59375 71.296875 
L 52.59375 62.3125 
Q 48.875 64.0625 45.09375 64.984375 
Q 41.3125 65.921875 37.59375 65.921875 
Q 27.828125 65.921875 22.671875 59.328125 
Q 17.53125 52.734375 16.796875 39.40625 
Q 19.671875 43.65625 24.015625 45.921875 
Q 28.375 48.1875 33.59375 48.1875 
Q 44.578125 48.1875 50.953125 41.515625 
Q 57.328125 34.859375 57.328125 23.390625 
Q 57.328125 12.15625 50.6875 5.359375 
Q 44.046875 -1.421875 33.015625 -1.421875 
Q 20.359375 -1.421875 13.671875 8.265625 
Q 6.984375 17.96875 6.984375 36.375 
Q 6.984375 53.65625 15.1875 63.9375 
Q 23.390625 74.21875 37.203125 74.21875 
Q 40.921875 74.21875 44.703125 73.484375 
Q 48.484375 72.75 52.59375 71.296875 
z
" id="DejaVuSans-36"/>
      </defs>
      <g transform="translate(25.15 216.604733)scale(0.1 -0.1)">
       <use xlink:href="#DejaVuSans-31"/>
       <use x="63.623047" xlink:href="#DejaVuSans-36"/>
       <use x="127.246094" xlink:href="#DejaVuSans-30"/>
       <use x="190.869141" xlink:href="#DejaVuSans-30"/>
      </g>
     </g>
    </g>
    <g id="ytick_4">
     <g id="line2d_8">
      <g>
       <use style="stroke:#000000;stroke-width:0.8;" x="57.6" xlink:href="#m7ea517848f" y="180.445691"/>
      </g>
     </g>
     <g id="text_9">
      <!-- 1700 -->
      <defs>
       <path d="M 8.203125 72.90625 
L 55.078125 72.90625 
L 55.078125 68.703125 
L 28.609375 0 
L 18.3125 0 
L 43.21875 64.59375 
L 8.203125 64.59375 
z
" id="DejaVuSans-37"/>
      </defs>
      <g transform="translate(25.15 184.24491)scale(0.1 -0.1)">
       <use xlink:href="#DejaVuSans-31"/>
       <use x="63.623047" xlink:href="#DejaVuSans-37"/>
       <use x="127.246094" xlink:href="#DejaVuSans-30"/>
       <use x="190.869141" xlink:href="#DejaVuSans-30"/>
      </g>
     </g>
    </g>
    <g id="ytick_5">
     <g id="line2d_9">
      <g>
       <use style="stroke:#000000;stroke-width:0.8;" x="57.6" xlink:href="#m7ea517848f" y="148.085869"/>
      </g>
     </g>
     <g id="text_10">
      <!-- 1800 -->
      <defs>
       <path d="M 31.78125 34.625 
Q 24.75 34.625 20.71875 30.859375 
Q 16.703125 27.09375 16.703125 20.515625 
Q 16.703125 13.921875 20.71875 10.15625 
Q 24.75 6.390625 31.78125 6.390625 
Q 38.8125 6.390625 42.859375 10.171875 
Q 46.921875 13.96875 46.921875 20.515625 
Q 46.921875 27.09375 42.890625 30.859375 
Q 38.875 34.625 31.78125 34.625 
z
M 21.921875 38.8125 
Q 15.578125 40.375 12.03125 44.71875 
Q 8.5 49.078125 8.5 55.328125 
Q 8.5 64.0625 14.71875 69.140625 
Q 20.953125 74.21875 31.78125 74.21875 
Q 42.671875 74.21875 48.875 69.140625 
Q 55.078125 64.0625 55.078125 55.328125 
Q 55.078125 49.078125 51.53125 44.71875 
Q 48 40.375 41.703125 38.8125 
Q 48.828125 37.15625 52.796875 32.3125 
Q 56.78125 27.484375 56.78125 20.515625 
Q 56.78125 9.90625 50.3125 4.234375 
Q 43.84375 -1.421875 31.78125 -1.421875 
Q 19.734375 -1.421875 13.25 4.234375 
Q 6.78125 9.90625 6.78125 20.515625 
Q 6.78125 27.484375 10.78125 32.3125 
Q 14.796875 37.15625 21.921875 38.8125 
z
M 18.3125 54.390625 
Q 18.3125 48.734375 21.84375 45.5625 
Q 25.390625 42.390625 31.78125 42.390625 
Q 38.140625 42.390625 41.71875 45.5625 
Q 45.3125 48.734375 45.3125 54.390625 
Q 45.3125 60.0625 41.71875 63.234375 
Q 38.140625 66.40625 31.78125 66.40625 
Q 25.390625 66.40625 21.84375 63.234375 
Q 18.3125 60.0625 18.3125 54.390625 
z
" id="DejaVuSans-38"/>
      </defs>
      <g transform="translate(25.15 151.885087)scale(0.1 -0.1)">
       <use xlink:href="#DejaVuSans-31"/>
       <use x="63.623047" xlink:href="#DejaVuSans-38"/>
       <use x="127.246094" xlink:href="#DejaVuSans-30"/>
       <use x="190.869141" xlink:href="#DejaVuSans-30"/>
      </g>
     </g>
    </g>
    <g id="ytick_6">
     <g id="line2d_10">
      <g>
       <use style="stroke:#000000;stroke-width:0.8;" x="57.6" xlink:href="#m7ea517848f" y="115.726046"/>
      </g>
     </g>
     <g id="text_11">
      <!-- 1900 -->
      <defs>
       <path d="M 10.984375 1.515625 
L 10.984375 10.5 
Q 14.703125 8.734375 18.5 7.8125 
Q 22.3125 6.890625 25.984375 6.890625 
Q 35.75 6.890625 40.890625 13.453125 
Q 46.046875 20.015625 46.78125 33.40625 
Q 43.953125 29.203125 39.59375 26.953125 
Q 35.25 24.703125 29.984375 24.703125 
Q 19.046875 24.703125 12.671875 31.3125 
Q 6.296875 37.9375 6.296875 49.421875 
Q 6.296875 60.640625 12.9375 67.421875 
Q 19.578125 74.21875 30.609375 74.21875 
Q 43.265625 74.21875 49.921875 64.515625 
Q 56.59375 54.828125 56.59375 36.375 
Q 56.59375 19.140625 48.40625 8.859375 
Q 40.234375 -1.421875 26.421875 -1.421875 
Q 22.703125 -1.421875 18.890625 -0.6875 
Q 15.09375 0.046875 10.984375 1.515625 
z
M 30.609375 32.421875 
Q 37.25 32.421875 41.125 36.953125 
Q 45.015625 41.5 45.015625 49.421875 
Q 45.015625 57.28125 41.125 61.84375 
Q 37.25 66.40625 30.609375 66.40625 
Q 23.96875 66.40625 20.09375 61.84375 
Q 16.21875 57.28125 16.21875 49.421875 
Q 16.21875 41.5 20.09375 36.953125 
Q 23.96875 32.421875 30.609375 32.421875 
z
" id="DejaVuSans-39"/>
      </defs>
      <g transform="translate(25.15 119.525265)scale(0.1 -0.1)">
       <use xlink:href="#DejaVuSans-31"/>
       <use x="63.623047" xlink:href="#DejaVuSans-39"/>
       <use x="127.246094" xlink:href="#DejaVuSans-30"/>
       <use x="190.869141" xlink:href="#DejaVuSans-30"/>
      </g>
     </g>
    </g>
    <g id="ytick_7">
     <g id="line2d_11">
      <g>
       <use style="stroke:#000000;stroke-width:0.8;" x="57.6" xlink:href="#m7ea517848f" y="83.366223"/>
      </g>
     </g>
     <g id="text_12">
      <!-- 2000 -->
      <g transform="translate(25.15 87.165442)scale(0.1 -0.1)">
       <use xlink:href="#DejaVuSans-32"/>
       <use x="63.623047" xlink:href="#DejaVuSans-30"/>
       <use x="127.246094" xlink:href="#DejaVuSans-30"/>
       <use x="190.869141" xlink:href="#DejaVuSans-30"/>
      </g>
     </g>
    </g>
    <g id="ytick_8">
     <g id="line2d_12">
      <g>
       <use style="stroke:#000000;stroke-width:0.8;" x="57.6" xlink:href="#m7ea517848f" y="51.006401"/>
      </g>
     </g>
     <g id="text_13">
      <!-- 2100 -->
      <g transform="translate(25.15 54.805619)scale(0.1 -0.1)">
       <use xlink:href="#DejaVuSans-32"/>
       <use x="63.623047" xlink:href="#DejaVuSans-31"/>
       <use x="127.246094" xlink:href="#DejaVuSans-30"/>
       <use x="190.869141" xlink:href="#DejaVuSans-30"/>
      </g>
     </g>
    </g>
    <g id="text_14">
     <!-- Tempo de execucao [s] -->
     <defs>
      <path d="M -0.296875 72.90625 
L 61.375 72.90625 
L 61.375 64.59375 
L 35.5 64.59375 
L 35.5 0 
L 25.59375 0 
L 25.59375 64.59375 
L -0.296875 64.59375 
z
" id="DejaVuSans-54"/>
      <path d="M 56.203125 29.59375 
L 56.203125 25.203125 
L 14.890625 25.203125 
Q 15.484375 15.921875 20.484375 11.0625 
Q 25.484375 6.203125 34.421875 6.203125 
Q 39.59375 6.203125 44.453125 7.46875 
Q 49.3125 8.734375 54.109375 11.28125 
L 54.109375 2.78125 
Q 49.265625 0.734375 44.1875 -0.34375 
Q 39.109375 -1.421875 33.890625 -1.421875 
Q 20.796875 -1.421875 13.15625 6.1875 
Q 5.515625 13.8125 5.515625 26.8125 
Q 5.515625 40.234375 12.765625 48.109375 
Q 20.015625 56 32.328125 56 
Q 43.359375 56 49.78125 48.890625 
Q 56.203125 41.796875 56.203125 29.59375 
z
M 47.21875 32.234375 
Q 47.125 39.59375 43.09375 43.984375 
Q 39.0625 48.390625 32.421875 48.390625 
Q 24.90625 48.390625 20.390625 44.140625 
Q 15.875 39.890625 15.1875 32.171875 
z
" id="DejaVuSans-65"/>
      <path d="M 52 44.1875 
Q 55.375 50.25 60.0625 53.125 
Q 64.75 56 71.09375 56 
Q 79.640625 56 84.28125 50.015625 
Q 88.921875 44.046875 88.921875 33.015625 
L 88.921875 0 
L 79.890625 0 
L 79.890625 32.71875 
Q 79.890625 40.578125 77.09375 44.375 
Q 74.3125 48.1875 68.609375 48.1875 
Q 61.625 48.1875 57.5625 43.546875 
Q 53.515625 38.921875 53.515625 30.90625 
L 53.515625 0 
L 44.484375 0 
L 44.484375 32.71875 
Q 44.484375 40.625 41.703125 44.40625 
Q 38.921875 48.1875 33.109375 48.1875 
Q 26.21875 48.1875 22.15625 43.53125 
Q 18.109375 38.875 18.109375 30.90625 
L 18.109375 0 
L 9.078125 0 
L 9.078125 54.6875 
L 18.109375 54.6875 
L 18.109375 46.1875 
Q 21.1875 51.21875 25.484375 53.609375 
Q 29.78125 56 35.6875 56 
Q 41.65625 56 45.828125 52.96875 
Q 50 49.953125 52 44.1875 
z
" id="DejaVuSans-6d"/>
      <path d="M 18.109375 8.203125 
L 18.109375 -20.796875 
L 9.078125 -20.796875 
L 9.078125 54.6875 
L 18.109375 54.6875 
L 18.109375 46.390625 
Q 20.953125 51.265625 25.265625 53.625 
Q 29.59375 56 35.59375 56 
Q 45.5625 56 51.78125 48.09375 
Q 58.015625 40.1875 58.015625 27.296875 
Q 58.015625 14.40625 51.78125 6.484375 
Q 45.5625 -1.421875 35.59375 -1.421875 
Q 29.59375 -1.421875 25.265625 0.953125 
Q 20.953125 3.328125 18.109375 8.203125 
z
M 48.6875 27.296875 
Q 48.6875 37.203125 44.609375 42.84375 
Q 40.53125 48.484375 33.40625 48.484375 
Q 26.265625 48.484375 22.1875 42.84375 
Q 18.109375 37.203125 18.109375 27.296875 
Q 18.109375 17.390625 22.1875 11.75 
Q 26.265625 6.109375 33.40625 6.109375 
Q 40.53125 6.109375 44.609375 11.75 
Q 48.6875 17.390625 48.6875 27.296875 
z
" id="DejaVuSans-70"/>
      <path d="M 45.40625 46.390625 
L 45.40625 75.984375 
L 54.390625 75.984375 
L 54.390625 0 
L 45.40625 0 
L 45.40625 8.203125 
Q 42.578125 3.328125 38.25 0.953125 
Q 33.9375 -1.421875 27.875 -1.421875 
Q 17.96875 -1.421875 11.734375 6.484375 
Q 5.515625 14.40625 5.515625 27.296875 
Q 5.515625 40.1875 11.734375 48.09375 
Q 17.96875 56 27.875 56 
Q 33.9375 56 38.25 53.625 
Q 42.578125 51.265625 45.40625 46.390625 
z
M 14.796875 27.296875 
Q 14.796875 17.390625 18.875 11.75 
Q 22.953125 6.109375 30.078125 6.109375 
Q 37.203125 6.109375 41.296875 11.75 
Q 45.40625 17.390625 45.40625 27.296875 
Q 45.40625 37.203125 41.296875 42.84375 
Q 37.203125 48.484375 30.078125 48.484375 
Q 22.953125 48.484375 18.875 42.84375 
Q 14.796875 37.203125 14.796875 27.296875 
z
" id="DejaVuSans-64"/>
      <path d="M 54.890625 54.6875 
L 35.109375 28.078125 
L 55.90625 0 
L 45.3125 0 
L 29.390625 21.484375 
L 13.484375 0 
L 2.875 0 
L 24.125 28.609375 
L 4.6875 54.6875 
L 15.28125 54.6875 
L 29.78125 35.203125 
L 44.28125 54.6875 
z
" id="DejaVuSans-78"/>
      <path d="M 48.78125 52.59375 
L 48.78125 44.1875 
Q 44.96875 46.296875 41.140625 47.34375 
Q 37.3125 48.390625 33.40625 48.390625 
Q 24.65625 48.390625 19.8125 42.84375 
Q 14.984375 37.3125 14.984375 27.296875 
Q 14.984375 17.28125 19.8125 11.734375 
Q 24.65625 6.203125 33.40625 6.203125 
Q 37.3125 6.203125 41.140625 7.25 
Q 44.96875 8.296875 48.78125 10.40625 
L 48.78125 2.09375 
Q 45.015625 0.34375 40.984375 -0.53125 
Q 36.96875 -1.421875 32.421875 -1.421875 
Q 20.0625 -1.421875 12.78125 6.34375 
Q 5.515625 14.109375 5.515625 27.296875 
Q 5.515625 40.671875 12.859375 48.328125 
Q 20.21875 56 33.015625 56 
Q 37.15625 56 41.109375 55.140625 
Q 45.0625 54.296875 48.78125 52.59375 
z
" id="DejaVuSans-63"/>
      <path d="M 34.28125 27.484375 
Q 23.390625 27.484375 19.1875 25 
Q 14.984375 22.515625 14.984375 16.5 
Q 14.984375 11.71875 18.140625 8.90625 
Q 21.296875 6.109375 26.703125 6.109375 
Q 34.1875 6.109375 38.703125 11.40625 
Q 43.21875 16.703125 43.21875 25.484375 
L 43.21875 27.484375 
z
M 52.203125 31.203125 
L 52.203125 0 
L 43.21875 0 
L 43.21875 8.296875 
Q 40.140625 3.328125 35.546875 0.953125 
Q 30.953125 -1.421875 24.3125 -1.421875 
Q 15.921875 -1.421875 10.953125 3.296875 
Q 6 8.015625 6 15.921875 
Q 6 25.140625 12.171875 29.828125 
Q 18.359375 34.515625 30.609375 34.515625 
L 43.21875 34.515625 
L 43.21875 35.40625 
Q 43.21875 41.609375 39.140625 45 
Q 35.0625 48.390625 27.6875 48.390625 
Q 23 48.390625 18.546875 47.265625 
Q 14.109375 46.140625 10.015625 43.890625 
L 10.015625 52.203125 
Q 14.9375 54.109375 19.578125 55.046875 
Q 24.21875 56 28.609375 56 
Q 40.484375 56 46.34375 49.84375 
Q 52.203125 43.703125 52.203125 31.203125 
z
" id="DejaVuSans-61"/>
     </defs>
     <g transform="translate(19.070312 233.173313)rotate(-90)scale(0.1 -0.1)">
      <use xlink:href="#DejaVuSans-54"/>
      <use x="60.818359" xlink:href="#DejaVuSans-65"/>
      <use x="122.341797" xlink:href="#DejaVuSans-6d"/>
      <use x="219.753906" xlink:href="#DejaVuSans-70"/>
      <use x="283.230469" xlink:href="#DejaVuSans-6f"/>
      <use x="344.412109" xlink:href="#DejaVuSans-20"/>
      <use x="376.199219" xlink:href="#DejaVuSans-64"/>
      <use x="439.675781" xlink:href="#DejaVuSans-65"/>
      <use x="501.199219" xlink:href="#DejaVuSans-20"/>
      <use x="532.986328" xlink:href="#DejaVuSans-65"/>
      <use x="594.494141" xlink:href="#DejaVuSans-78"/>
      <use x="653.626953" xlink:href="#DejaVuSans-65"/>
      <use x="715.150391" xlink:href="#DejaVuSans-63"/>
      <use x="770.130859" xlink:href="#DejaVuSans-75"/>
      <use x="833.509766" xlink:href="#DejaVuSans-63"/>
      <use x="888.490234" xlink:href="#DejaVuSans-61"/>
      <use x="949.769531" xlink:href="#DejaVuSans-6f"/>
      <use x="1010.951172" xlink:href="#DejaVuSans-20"/>
      <use x="1042.738281" xlink:href="#DejaVuSans-5b"/>
      <use x="1081.751953" xlink:href="#DejaVuSans-73"/>
      <use x="1133.851562" xlink:href="#DejaVuSans-5d"/>
     </g>
    </g>
   </g>
   <g id="LineCollection_1">
    <path clip-path="url(#p341c5a35d7)" d="M 96.429023 195.364542 
L 98.381758 195.364542 
" style="fill:none;stroke:#1f77b4;stroke-width:1.5;"/>
   </g>
   <g id="LineCollection_2">
    <path clip-path="url(#p341c5a35d7)" d="M 97.40539 206.40449 
L 97.40539 184.324593 
" style="fill:none;stroke:#1f77b4;stroke-width:1.5;"/>
   </g>
   <g id="LineCollection_3">
    <path clip-path="url(#p341c5a35d7)" d="M 385.06769 86.610619 
L 398.487273 86.610619 
" style="fill:none;stroke:#ff7f0e;stroke-width:1.5;"/>
   </g>
   <g id="LineCollection_4">
    <path clip-path="url(#p341c5a35d7)" d="M 391.777481 99.255407 
L 391.777481 73.965831 
" style="fill:none;stroke:#ff7f0e;stroke-width:1.5;"/>
   </g>
   <g id="LineCollection_5">
    <path clip-path="url(#p341c5a35d7)" d="M 310.636902 64.705081 
L 319.501522 64.705081 
" style="fill:none;stroke:#2ca02c;stroke-width:1.5;"/>
   </g>
   <g id="LineCollection_6">
    <path clip-path="url(#p341c5a35d7)" d="M 315.069212 75.842161 
L 315.069212 53.568 
" style="fill:none;stroke:#2ca02c;stroke-width:1.5;"/>
   </g>
   <g id="LineCollection_7">
    <path clip-path="url(#p341c5a35d7)" d="M 223.222758 292.489565 
L 225.609379 292.489565 
" style="fill:none;stroke:#d62728;stroke-width:1.5;"/>
   </g>
   <g id="LineCollection_8">
    <path clip-path="url(#p341c5a35d7)" d="M 224.416068 295.488 
L 224.416068 289.491129 
" style="fill:none;stroke:#d62728;stroke-width:1.5;"/>
   </g>
   <g id="LineCollection_9">
    <path clip-path="url(#p341c5a35d7)" d="M 153.363938 203.849395 
L 156.401682 203.849395 
" style="fill:none;stroke:#9467bd;stroke-width:1.5;"/>
   </g>
   <g id="LineCollection_10">
    <path clip-path="url(#p341c5a35d7)" d="M 154.88281 211.482345 
L 154.88281 196.216445 
" style="fill:none;stroke:#9467bd;stroke-width:1.5;"/>
   </g>
   <g id="LineCollection_11">
    <path clip-path="url(#p341c5a35d7)" d="M 73.832727 190.383986 
L 74.085883 190.383986 
" style="fill:none;stroke:#8c564b;stroke-width:1.5;"/>
   </g>
   <g id="LineCollection_12">
    <path clip-path="url(#p341c5a35d7)" d="M 73.959305 193.246455 
L 73.959305 187.521517 
" style="fill:none;stroke:#8c564b;stroke-width:1.5;"/>
   </g>
   <g id="LineCollection_13">
    <path clip-path="url(#p341c5a35d7)" d="M 127.957045 60.894078 
L 128.960887 60.894078 
" style="fill:none;stroke:#e377c2;stroke-width:1.5;"/>
   </g>
   <g id="LineCollection_14">
    <path clip-path="url(#p341c5a35d7)" d="M 128.458966 65.182086 
L 128.458966 56.606071 
" style="fill:none;stroke:#e377c2;stroke-width:1.5;"/>
   </g>
   <g id="LineCollection_15">
    <path clip-path="url(#p341c5a35d7)" d="M 187.046577 212.592311 
L 187.953108 212.592311 
" style="fill:none;stroke:#7f7f7f;stroke-width:1.5;"/>
   </g>
   <g id="LineCollection_16">
    <path clip-path="url(#p341c5a35d7)" d="M 187.499843 214.300695 
L 187.499843 210.883927 
" style="fill:none;stroke:#7f7f7f;stroke-width:1.5;"/>
   </g>
   <g id="line2d_13">
    <defs>
     <path d="M 0 3 
L 0 -3 
" id="m7b00fe1251" style="stroke:#1f77b4;"/>
    </defs>
    <g clip-path="url(#p341c5a35d7)">
     <use style="fill:#1f77b4;stroke:#1f77b4;" x="96.429023" xlink:href="#m7b00fe1251" y="195.364542"/>
    </g>
   </g>
   <g id="line2d_14">
    <g clip-path="url(#p341c5a35d7)">
     <use style="fill:#1f77b4;stroke:#1f77b4;" x="98.381758" xlink:href="#m7b00fe1251" y="195.364542"/>
    </g>
   </g>
   <g id="line2d_15">
    <defs>
     <path d="M 3 0 
L -3 -0 
" id="mde412c1ef2" style="stroke:#1f77b4;"/>
    </defs>
    <g clip-path="url(#p341c5a35d7)">
     <use style="fill:#1f77b4;stroke:#1f77b4;" x="97.40539" xlink:href="#mde412c1ef2" y="206.40449"/>
    </g>
   </g>
   <g id="line2d_16">
    <g clip-path="url(#p341c5a35d7)">
     <use style="fill:#1f77b4;stroke:#1f77b4;" x="97.40539" xlink:href="#mde412c1ef2" y="184.324593"/>
    </g>
   </g>
   <g id="line2d_17">
    <defs>
     <path d="M 0 3 
L 0 -3 
" id="m753f9b983b" style="stroke:#ff7f0e;"/>
    </defs>
    <g clip-path="url(#p341c5a35d7)">
     <use style="fill:#ff7f0e;stroke:#ff7f0e;" x="385.06769" xlink:href="#m753f9b983b" y="86.610619"/>
    </g>
   </g>
   <g id="line2d_18">
    <g clip-path="url(#p341c5a35d7)">
     <use style="fill:#ff7f0e;stroke:#ff7f0e;" x="398.487273" xlink:href="#m753f9b983b" y="86.610619"/>
    </g>
   </g>
   <g id="line2d_19">
    <defs>
     <path d="M 3 0 
L -3 -0 
" id="mf99db3a19a" style="stroke:#ff7f0e;"/>
    </defs>
    <g clip-path="url(#p341c5a35d7)">
     <use style="fill:#ff7f0e;stroke:#ff7f0e;" x="391.777481" xlink:href="#mf99db3a19a" y="99.255407"/>
    </g>
   </g>
   <g id="line2d_20">
    <g clip-path="url(#p341c5a35d7)">
     <use style="fill:#ff7f0e;stroke:#ff7f0e;" x="391.777481" xlink:href="#mf99db3a19a" y="73.965831"/>
    </g>
   </g>
   <g id="line2d_21">
    <defs>
     <path d="M 0 3 
L 0 -3 
" id="m722cd2f992" style="stroke:#2ca02c;"/>
    </defs>
    <g clip-path="url(#p341c5a35d7)">
     <use style="fill:#2ca02c;stroke:#2ca02c;" x="310.636902" xlink:href="#m722cd2f992" y="64.705081"/>
    </g>
   </g>
   <g id="line2d_22">
    <g clip-path="url(#p341c5a35d7)">
     <use style="fill:#2ca02c;stroke:#2ca02c;" x="319.501522" xlink:href="#m722cd2f992" y="64.705081"/>
    </g>
   </g>
   <g id="line2d_23">
    <defs>
     <path d="M 3 0 
L -3 -0 
" id="m214f949751" style="stroke:#2ca02c;"/>
    </defs>
    <g clip-path="url(#p341c5a35d7)">
     <use style="fill:#2ca02c;stroke:#2ca02c;" x="315.069212" xlink:href="#m214f949751" y="75.842161"/>
    </g>
   </g>
   <g id="line2d_24">
    <g clip-path="url(#p341c5a35d7)">
     <use style="fill:#2ca02c;stroke:#2ca02c;" x="315.069212" xlink:href="#m214f949751" y="53.568"/>
    </g>
   </g>
   <g id="line2d_25">
    <defs>
     <path d="M 0 3 
L 0 -3 
" id="m5d1cdf2767" style="stroke:#d62728;"/>
    </defs>
    <g clip-path="url(#p341c5a35d7)">
     <use style="fill:#d62728;stroke:#d62728;" x="223.222758" xlink:href="#m5d1cdf2767" y="292.489565"/>
    </g>
   </g>
   <g id="line2d_26">
    <g clip-path="url(#p341c5a35d7)">
     <use style="fill:#d62728;stroke:#d62728;" x="225.609379" xlink:href="#m5d1cdf2767" y="292.489565"/>
    </g>
   </g>
   <g id="line2d_27">
    <defs>
     <path d="M 3 0 
L -3 -0 
" id="m589e5e0372" style="stroke:#d62728;"/>
    </defs>
    <g clip-path="url(#p341c5a35d7)">
     <use style="fill:#d62728;stroke:#d62728;" x="224.416068" xlink:href="#m589e5e0372" y="295.488"/>
    </g>
   </g>
   <g id="line2d_28">
    <g clip-path="url(#p341c5a35d7)">
     <use style="fill:#d62728;stroke:#d62728;" x="224.416068" xlink:href="#m589e5e0372" y="289.491129"/>
    </g>
   </g>
   <g id="line2d_29">
    <defs>
     <path d="M 0 3 
L 0 -3 
" id="m997090dd30" style="stroke:#9467bd;"/>
    </defs>
    <g clip-path="url(#p341c5a35d7)">
     <use style="fill:#9467bd;stroke:#9467bd;" x="153.363938" xlink:href="#m997090dd30" y="203.849395"/>
    </g>
   </g>
   <g id="line2d_30">
    <g clip-path="url(#p341c5a35d7)">
     <use style="fill:#9467bd;stroke:#9467bd;" x="156.401682" xlink:href="#m997090dd30" y="203.849395"/>
    </g>
   </g>
   <g id="line2d_31">
    <defs>
     <path d="M 3 0 
L -3 -0 
" id="m0fbd1e319b" style="stroke:#9467bd;"/>
    </defs>
    <g clip-path="url(#p341c5a35d7)">
     <use style="fill:#9467bd;stroke:#9467bd;" x="154.88281" xlink:href="#m0fbd1e319b" y="211.482345"/>
    </g>
   </g>
   <g id="line2d_32">
    <g clip-path="url(#p341c5a35d7)">
     <use style="fill:#9467bd;stroke:#9467bd;" x="154.88281" xlink:href="#m0fbd1e319b" y="196.216445"/>
    </g>
   </g>
   <g id="line2d_33">
    <defs>
     <path d="M 0 3 
L 0 -3 
" id="m9d8f36d1b2" style="stroke:#8c564b;"/>
    </defs>
    <g clip-path="url(#p341c5a35d7)">
     <use style="fill:#8c564b;stroke:#8c564b;" x="73.832727" xlink:href="#m9d8f36d1b2" y="190.383986"/>
    </g>
   </g>
   <g id="line2d_34">
    <g clip-path="url(#p341c5a35d7)">
     <use style="fill:#8c564b;stroke:#8c564b;" x="74.085883" xlink:href="#m9d8f36d1b2" y="190.383986"/>
    </g>
   </g>
   <g id="line2d_35">
    <defs>
     <path d="M 3 0 
L -3 -0 
" id="mde83767452" style="stroke:#8c564b;"/>
    </defs>
    <g clip-path="url(#p341c5a35d7)">
     <use style="fill:#8c564b;stroke:#8c564b;" x="73.959305" xlink:href="#mde83767452" y="193.246455"/>
    </g>
   </g>
   <g id="line2d_36">
    <g clip-path="url(#p341c5a35d7)">
     <use style="fill:#8c564b;stroke:#8c564b;" x="73.959305" xlink:href="#mde83767452" y="187.521517"/>
    </g>
   </g>
   <g id="line2d_37">
    <defs>
     <path d="M 0 3 
L 0 -3 
" id="md3218c857e" style="stroke:#e377c2;"/>
    </defs>
    <g clip-path="url(#p341c5a35d7)">
     <use style="fill:#e377c2;stroke:#e377c2;" x="127.957045" xlink:href="#md3218c857e" y="60.894078"/>
    </g>
   </g>
   <g id="line2d_38">
    <g clip-path="url(#p341c5a35d7)">
     <use style="fill:#e377c2;stroke:#e377c2;" x="128.960887" xlink:href="#md3218c857e" y="60.894078"/>
    </g>
   </g>
   <g id="line2d_39">
    <defs>
     <path d="M 3 0 
L -3 -0 
" id="m177b6c9279" style="stroke:#e377c2;"/>
    </defs>
    <g clip-path="url(#p341c5a35d7)">
     <use style="fill:#e377c2;stroke:#e377c2;" x="128.458966" xlink:href="#m177b6c9279" y="65.182086"/>
    </g>
   </g>
   <g id="line2d_40">
    <g clip-path="url(#p341c5a35d7)">
     <use style="fill:#e377c2;stroke:#e377c2;" x="128.458966" xlink:href="#m177b6c9279" y="56.606071"/>
    </g>
   </g>
   <g id="line2d_41">
    <defs>
     <path d="M 0 3 
L 0 -3 
" id="m8d746deeb9" style="stroke:#7f7f7f;"/>
    </defs>
    <g clip-path="url(#p341c5a35d7)">
     <use style="fill:#7f7f7f;stroke:#7f7f7f;" x="187.046577" xlink:href="#m8d746deeb9" y="212.592311"/>
    </g>
   </g>
   <g id="line2d_42">
    <g clip-path="url(#p341c5a35d7)">
     <use style="fill:#7f7f7f;stroke:#7f7f7f;" x="187.953108" xlink:href="#m8d746deeb9" y="212.592311"/>
    </g>
   </g>
   <g id="line2d_43">
    <defs>
     <path d="M 3 0 
L -3 -0 
" id="m56b8227e98" style="stroke:#7f7f7f;"/>
    </defs>
    <g clip-path="url(#p341c5a35d7)">
     <use style="fill:#7f7f7f;stroke:#7f7f7f;" x="187.499843" xlink:href="#m56b8227e98" y="214.300695"/>
    </g>
   </g>
   <g id="line2d_44">
    <g clip-path="url(#p341c5a35d7)">
     <use style="fill:#7f7f7f;stroke:#7f7f7f;" x="187.499843" xlink:href="#m56b8227e98" y="210.883927"/>
    </g>
   </g>
   <g id="line2d_45">
    <defs>
     <path d="M 0 1.5 
C 0.397805 1.5 0.77937 1.341951 1.06066 1.06066 
C 1.341951 0.77937 1.5 0.397805 1.5 0 
C 1.5 -0.397805 1.341951 -0.77937 1.06066 -1.06066 
C 0.77937 -1.341951 0.397805 -1.5 0 -1.5 
C -0.397805 -1.5 -0.77937 -1.341951 -1.06066 -1.06066 
C -1.341951 -0.77937 -1.5 -0.397805 -1.5 0 
C -1.5 0.397805 -1.341951 0.77937 -1.06066 1.06066 
C -0.77937 1.341951 -0.397805 1.5 0 1.5 
z
" id="m1c53696dbf" style="stroke:#1f77b4;"/>
    </defs>
    <g clip-path="url(#p341c5a35d7)">
     <use style="fill:#1f77b4;stroke:#1f77b4;" x="97.40539" xlink:href="#m1c53696dbf" y="195.364542"/>
    </g>
   </g>
   <g id="line2d_46">
    <defs>
     <path d="M 0 1.5 
C 0.397805 1.5 0.77937 1.341951 1.06066 1.06066 
C 1.341951 0.77937 1.5 0.397805 1.5 0 
C 1.5 -0.397805 1.341951 -0.77937 1.06066 -1.06066 
C 0.77937 -1.341951 0.397805 -1.5 0 -1.5 
C -0.397805 -1.5 -0.77937 -1.341951 -1.06066 -1.06066 
C -1.341951 -0.77937 -1.5 -0.397805 -1.5 0 
C -1.5 0.397805 -1.341951 0.77937 -1.06066 1.06066 
C -0.77937 1.341951 -0.397805 1.5 0 1.5 
z
" id="m4263a0ec94" style="stroke:#ff7f0e;"/>
    </defs>
    <g clip-path="url(#p341c5a35d7)">
     <use style="fill:#ff7f0e;stroke:#ff7f0e;" x="391.777481" xlink:href="#m4263a0ec94" y="86.610619"/>
    </g>
   </g>
   <g id="line2d_47">
    <defs>
     <path d="M 0 1.5 
C 0.397805 1.5 0.77937 1.341951 1.06066 1.06066 
C 1.341951 0.77937 1.5 0.397805 1.5 0 
C 1.5 -0.397805 1.341951 -0.77937 1.06066 -1.06066 
C 0.77937 -1.341951 0.397805 -1.5 0 -1.5 
C -0.397805 -1.5 -0.77937 -1.341951 -1.06066 -1.06066 
C -1.341951 -0.77937 -1.5 -0.397805 -1.5 0 
C -1.5 0.397805 -1.341951 0.77937 -1.06066 1.06066 
C -0.77937 1.341951 -0.397805 1.5 0 1.5 
z
" id="mcafa9ff56a" style="stroke:#2ca02c;"/>
    </defs>
    <g clip-path="url(#p341c5a35d7)">
     <use style="fill:#2ca02c;stroke:#2ca02c;" x="315.069212" xlink:href="#mcafa9ff56a" y="64.705081"/>
    </g>
   </g>
   <g id="line2d_48">
    <defs>
     <path d="M 0 1.5 
C 0.397805 1.5 0.77937 1.341951 1.06066 1.06066 
C 1.341951 0.77937 1.5 0.397805 1.5 0 
C 1.5 -0.397805 1.341951 -0.77937 1.06066 -1.06066 
C 0.77937 -1.341951 0.397805 -1.5 0 -1.5 
C -0.397805 -1.5 -0.77937 -1.341951 -1.06066 -1.06066 
C -1.341951 -0.77937 -1.5 -0.397805 -1.5 0 
C -1.5 0.397805 -1.341951 0.77937 -1.06066 1.06066 
C -0.77937 1.341951 -0.397805 1.5 0 1.5 
z
" id="m2f3b5f7639" style="stroke:#d62728;"/>
    </defs>
    <g clip-path="url(#p341c5a35d7)">
     <use style="fill:#d62728;stroke:#d62728;" x="224.416068" xlink:href="#m2f3b5f7639" y="292.489565"/>
    </g>
   </g>
   <g id="line2d_49">
    <defs>
     <path d="M 0 1.5 
C 0.397805 1.5 0.77937 1.341951 1.06066 1.06066 
C 1.341951 0.77937 1.5 0.397805 1.5 0 
C 1.5 -0.397805 1.341951 -0.77937 1.06066 -1.06066 
C 0.77937 -1.341951 0.397805 -1.5 0 -1.5 
C -0.397805 -1.5 -0.77937 -1.341951 -1.06066 -1.06066 
C -1.341951 -0.77937 -1.5 -0.397805 -1.5 0 
C -1.5 0.397805 -1.341951 0.77937 -1.06066 1.06066 
C -0.77937 1.341951 -0.397805 1.5 0 1.5 
z
" id="m31d715de07" style="stroke:#9467bd;"/>
    </defs>
    <g clip-path="url(#p341c5a35d7)">
     <use style="fill:#9467bd;stroke:#9467bd;" x="154.88281" xlink:href="#m31d715de07" y="203.849395"/>
    </g>
   </g>
   <g id="line2d_50">
    <defs>
     <path d="M 0 1.5 
C 0.397805 1.5 0.77937 1.341951 1.06066 1.06066 
C 1.341951 0.77937 1.5 0.397805 1.5 0 
C 1.5 -0.397805 1.341951 -0.77937 1.06066 -1.06066 
C 0.77937 -1.341951 0.397805 -1.5 0 -1.5 
C -0.397805 -1.5 -0.77937 -1.341951 -1.06066 -1.06066 
C -1.341951 -0.77937 -1.5 -0.397805 -1.5 0 
C -1.5 0.397805 -1.341951 0.77937 -1.06066 1.06066 
C -0.77937 1.341951 -0.397805 1.5 0 1.5 
z
" id="m50346d1870" style="stroke:#8c564b;"/>
    </defs>
    <g clip-path="url(#p341c5a35d7)">
     <use style="fill:#8c564b;stroke:#8c564b;" x="73.959305" xlink:href="#m50346d1870" y="190.383986"/>
    </g>
   </g>
   <g id="line2d_51">
    <defs>
     <path d="M 0 1.5 
C 0.397805 1.5 0.77937 1.341951 1.06066 1.06066 
C 1.341951 0.77937 1.5 0.397805 1.5 0 
C 1.5 -0.397805 1.341951 -0.77937 1.06066 -1.06066 
C 0.77937 -1.341951 0.397805 -1.5 0 -1.5 
C -0.397805 -1.5 -0.77937 -1.341951 -1.06066 -1.06066 
C -1.341951 -0.77937 -1.5 -0.397805 -1.5 0 
C -1.5 0.397805 -1.341951 0.77937 -1.06066 1.06066 
C -0.77937 1.341951 -0.397805 1.5 0 1.5 
z
" id="m137828201b" style="stroke:#e377c2;"/>
    </defs>
    <g clip-path="url(#p341c5a35d7)">
     <use style="fill:#e377c2;stroke:#e377c2;" x="128.458966" xlink:href="#m137828201b" y="60.894078"/>
    </g>
   </g>
   <g id="line2d_52">
    <defs>
     <path d="M 0 1.5 
C 0.397805 1.5 0.77937 1.341951 1.06066 1.06066 
C 1.341951 0.77937 1.5 0.397805 1.5 0 
C 1.5 -0.397805 1.341951 -0.77937 1.06066 -1.06066 
C 0.77937 -1.341951 0.397805 -1.5 0 -1.5 
C -0.397805 -1.5 -0.77937 -1.341951 -1.06066 -1.06066 
C -1.341951 -0.77937 -1.5 -0.397805 -1.5 0 
C -1.5 0.397805 -1.341951 0.77937 -1.06066 1.06066 
C -0.77937 1.341951 -0.397805 1.5 0 1.5 
z
" id="m382b86b221" style="stroke:#7f7f7f;"/>
    </defs>
    <g clip-path="url(#p341c5a35d7)">
     <use style="fill:#7f7f7f;stroke:#7f7f7f;" x="187.499843" xlink:href="#m382b86b221" y="212.592311"/>
    </g>
   </g>
   <g id="patch_3">
    <path d="M 57.6 307.584 
L 57.6 41.472 
" style="fill:none;stroke:#000000;stroke-linecap:square;stroke-linejoin:miter;stroke-width:0.8;"/>
   </g>
   <g id="patch_4">
    <path d="M 414.72 307.584 
L 414.72 41.472 
" style="fill:none;stroke:#000000;stroke-linecap:square;stroke-linejoin:miter;stroke-width:0.8;"/>
   </g>
   <g id="patch_5">
    <path d="M 57.6 307.584 
L 414.72 307.584 
" style="fill:none;stroke:#000000;stroke-linecap:square;stroke-linejoin:miter;stroke-width:0.8;"/>
   </g>
   <g id="patch_6">
    <path d="M 57.6 41.472 
L 414.72 41.472 
" style="fill:none;stroke:#000000;stroke-linecap:square;stroke-linejoin:miter;stroke-width:0.8;"/>
   </g>
   <g id="legend_1">
    <g id="patch_7">
     <path d="M 316.52 302.584 
L 407.72 302.584 
Q 409.72 302.584 409.72 300.584 
L 409.72 184.159 
Q 409.72 182.159 407.72 182.159 
L 316.52 182.159 
Q 314.52 182.159 314.52 184.159 
L 314.52 300.584 
Q 314.52 302.584 316.52 302.584 
z
" style="fill:#ffffff;opacity:0.8;stroke:#cccccc;stroke-linejoin:miter;"/>
    </g>
    <g id="LineCollection_17">
     <path d="M 323.52 190.257437 
L 333.52 190.257437 
" style="fill:none;stroke:#1f77b4;stroke-width:1.5;"/>
    </g>
    <g id="LineCollection_18">
     <path d="M 328.52 195.257437 
L 328.52 185.257437 
" style="fill:none;stroke:#1f77b4;stroke-width:1.5;"/>
    </g>
    <g id="line2d_53">
     <g>
      <use style="fill:#1f77b4;stroke:#1f77b4;" x="323.52" xlink:href="#m7b00fe1251" y="190.257437"/>
     </g>
    </g>
    <g id="line2d_54">
     <g>
      <use style="fill:#1f77b4;stroke:#1f77b4;" x="333.52" xlink:href="#m7b00fe1251" y="190.257437"/>
     </g>
    </g>
    <g id="line2d_55">
     <g>
      <use style="fill:#1f77b4;stroke:#1f77b4;" x="328.52" xlink:href="#mde412c1ef2" y="195.257437"/>
     </g>
    </g>
    <g id="line2d_56">
     <g>
      <use style="fill:#1f77b4;stroke:#1f77b4;" x="328.52" xlink:href="#mde412c1ef2" y="185.257437"/>
     </g>
    </g>
    <g id="line2d_57"/>
    <g id="line2d_58">
     <g>
      <use style="fill:#1f77b4;stroke:#1f77b4;" x="328.52" xlink:href="#m1c53696dbf" y="190.257437"/>
     </g>
    </g>
    <g id="text_15">
     <!-- c5.4xlarge -->
     <defs>
      <path d="M 9.421875 75.984375 
L 18.40625 75.984375 
L 18.40625 0 
L 9.421875 0 
z
" id="DejaVuSans-6c"/>
      <path d="M 41.109375 46.296875 
Q 39.59375 47.171875 37.8125 47.578125 
Q 36.03125 48 33.890625 48 
Q 26.265625 48 22.1875 43.046875 
Q 18.109375 38.09375 18.109375 28.8125 
L 18.109375 0 
L 9.078125 0 
L 9.078125 54.6875 
L 18.109375 54.6875 
L 18.109375 46.1875 
Q 20.953125 51.171875 25.484375 53.578125 
Q 30.03125 56 36.53125 56 
Q 37.453125 56 38.578125 55.875 
Q 39.703125 55.765625 41.0625 55.515625 
z
" id="DejaVuSans-72"/>
      <path d="M 45.40625 27.984375 
Q 45.40625 37.75 41.375 43.109375 
Q 37.359375 48.484375 30.078125 48.484375 
Q 22.859375 48.484375 18.828125 43.109375 
Q 14.796875 37.75 14.796875 27.984375 
Q 14.796875 18.265625 18.828125 12.890625 
Q 22.859375 7.515625 30.078125 7.515625 
Q 37.359375 7.515625 41.375 12.890625 
Q 45.40625 18.265625 45.40625 27.984375 
z
M 54.390625 6.78125 
Q 54.390625 -7.171875 48.1875 -13.984375 
Q 42 -20.796875 29.203125 -20.796875 
Q 24.46875 -20.796875 20.265625 -20.09375 
Q 16.0625 -19.390625 12.109375 -17.921875 
L 12.109375 -9.1875 
Q 16.0625 -11.328125 19.921875 -12.34375 
Q 23.78125 -13.375 27.78125 -13.375 
Q 36.625 -13.375 41.015625 -8.765625 
Q 45.40625 -4.15625 45.40625 5.171875 
L 45.40625 9.625 
Q 42.625 4.78125 38.28125 2.390625 
Q 33.9375 0 27.875 0 
Q 17.828125 0 11.671875 7.65625 
Q 5.515625 15.328125 5.515625 27.984375 
Q 5.515625 40.671875 11.671875 48.328125 
Q 17.828125 56 27.875 56 
Q 33.9375 56 38.28125 53.609375 
Q 42.625 51.21875 45.40625 46.390625 
L 45.40625 54.6875 
L 54.390625 54.6875 
z
" id="DejaVuSans-67"/>
     </defs>
     <g transform="translate(346.52 193.757437)scale(0.1 -0.1)">
      <use xlink:href="#DejaVuSans-63"/>
      <use x="54.980469" xlink:href="#DejaVuSans-35"/>
      <use x="118.603516" xlink:href="#DejaVuSans-2e"/>
      <use x="150.390625" xlink:href="#DejaVuSans-34"/>
      <use x="214.013672" xlink:href="#DejaVuSans-78"/>
      <use x="273.193359" xlink:href="#DejaVuSans-6c"/>
      <use x="300.976562" xlink:href="#DejaVuSans-61"/>
      <use x="362.255859" xlink:href="#DejaVuSans-72"/>
      <use x="403.353516" xlink:href="#DejaVuSans-67"/>
      <use x="466.830078" xlink:href="#DejaVuSans-65"/>
     </g>
    </g>
    <g id="LineCollection_19">
     <path d="M 323.52 204.935563 
L 333.52 204.935563 
" style="fill:none;stroke:#ff7f0e;stroke-width:1.5;"/>
    </g>
    <g id="LineCollection_20">
     <path d="M 328.52 209.935563 
L 328.52 199.935563 
" style="fill:none;stroke:#ff7f0e;stroke-width:1.5;"/>
    </g>
    <g id="line2d_59">
     <g>
      <use style="fill:#ff7f0e;stroke:#ff7f0e;" x="323.52" xlink:href="#m753f9b983b" y="204.935563"/>
     </g>
    </g>
    <g id="line2d_60">
     <g>
      <use style="fill:#ff7f0e;stroke:#ff7f0e;" x="333.52" xlink:href="#m753f9b983b" y="204.935563"/>
     </g>
    </g>
    <g id="line2d_61">
     <g>
      <use style="fill:#ff7f0e;stroke:#ff7f0e;" x="328.52" xlink:href="#mf99db3a19a" y="209.935563"/>
     </g>
    </g>
    <g id="line2d_62">
     <g>
      <use style="fill:#ff7f0e;stroke:#ff7f0e;" x="328.52" xlink:href="#mf99db3a19a" y="199.935563"/>
     </g>
    </g>
    <g id="line2d_63"/>
    <g id="line2d_64">
     <g>
      <use style="fill:#ff7f0e;stroke:#ff7f0e;" x="328.52" xlink:href="#m4263a0ec94" y="204.935563"/>
     </g>
    </g>
    <g id="text_16">
     <!-- c5.24xlarge -->
     <g transform="translate(346.52 208.435563)scale(0.1 -0.1)">
      <use xlink:href="#DejaVuSans-63"/>
      <use x="54.980469" xlink:href="#DejaVuSans-35"/>
      <use x="118.603516" xlink:href="#DejaVuSans-2e"/>
      <use x="150.390625" xlink:href="#DejaVuSans-32"/>
      <use x="214.013672" xlink:href="#DejaVuSans-34"/>
      <use x="277.636719" xlink:href="#DejaVuSans-78"/>
      <use x="336.816406" xlink:href="#DejaVuSans-6c"/>
      <use x="364.599609" xlink:href="#DejaVuSans-61"/>
      <use x="425.878906" xlink:href="#DejaVuSans-72"/>
      <use x="466.976562" xlink:href="#DejaVuSans-67"/>
      <use x="530.453125" xlink:href="#DejaVuSans-65"/>
     </g>
    </g>
    <g id="LineCollection_21">
     <path d="M 323.52 219.613687 
L 333.52 219.613687 
" style="fill:none;stroke:#2ca02c;stroke-width:1.5;"/>
    </g>
    <g id="LineCollection_22">
     <path d="M 328.52 224.613687 
L 328.52 214.613687 
" style="fill:none;stroke:#2ca02c;stroke-width:1.5;"/>
    </g>
    <g id="line2d_65">
     <g>
      <use style="fill:#2ca02c;stroke:#2ca02c;" x="323.52" xlink:href="#m722cd2f992" y="219.613687"/>
     </g>
    </g>
    <g id="line2d_66">
     <g>
      <use style="fill:#2ca02c;stroke:#2ca02c;" x="333.52" xlink:href="#m722cd2f992" y="219.613687"/>
     </g>
    </g>
    <g id="line2d_67">
     <g>
      <use style="fill:#2ca02c;stroke:#2ca02c;" x="328.52" xlink:href="#m214f949751" y="224.613687"/>
     </g>
    </g>
    <g id="line2d_68">
     <g>
      <use style="fill:#2ca02c;stroke:#2ca02c;" x="328.52" xlink:href="#m214f949751" y="214.613687"/>
     </g>
    </g>
    <g id="line2d_69"/>
    <g id="line2d_70">
     <g>
      <use style="fill:#2ca02c;stroke:#2ca02c;" x="328.52" xlink:href="#mcafa9ff56a" y="219.613687"/>
     </g>
    </g>
    <g id="text_17">
     <!-- c5.18xlarge -->
     <g transform="translate(346.52 223.113687)scale(0.1 -0.1)">
      <use xlink:href="#DejaVuSans-63"/>
      <use x="54.980469" xlink:href="#DejaVuSans-35"/>
      <use x="118.603516" xlink:href="#DejaVuSans-2e"/>
      <use x="150.390625" xlink:href="#DejaVuSans-31"/>
      <use x="214.013672" xlink:href="#DejaVuSans-38"/>
      <use x="277.636719" xlink:href="#DejaVuSans-78"/>
      <use x="336.816406" xlink:href="#DejaVuSans-6c"/>
      <use x="364.599609" xlink:href="#DejaVuSans-61"/>
      <use x="425.878906" xlink:href="#DejaVuSans-72"/>
      <use x="466.976562" xlink:href="#DejaVuSans-67"/>
      <use x="530.453125" xlink:href="#DejaVuSans-65"/>
     </g>
    </g>
    <g id="LineCollection_23">
     <path d="M 323.52 234.291812 
L 333.52 234.291812 
" style="fill:none;stroke:#d62728;stroke-width:1.5;"/>
    </g>
    <g id="LineCollection_24">
     <path d="M 328.52 239.291812 
L 328.52 229.291812 
" style="fill:none;stroke:#d62728;stroke-width:1.5;"/>
    </g>
    <g id="line2d_71">
     <g>
      <use style="fill:#d62728;stroke:#d62728;" x="323.52" xlink:href="#m5d1cdf2767" y="234.291812"/>
     </g>
    </g>
    <g id="line2d_72">
     <g>
      <use style="fill:#d62728;stroke:#d62728;" x="333.52" xlink:href="#m5d1cdf2767" y="234.291812"/>
     </g>
    </g>
    <g id="line2d_73">
     <g>
      <use style="fill:#d62728;stroke:#d62728;" x="328.52" xlink:href="#m589e5e0372" y="239.291812"/>
     </g>
    </g>
    <g id="line2d_74">
     <g>
      <use style="fill:#d62728;stroke:#d62728;" x="328.52" xlink:href="#m589e5e0372" y="229.291812"/>
     </g>
    </g>
    <g id="line2d_75"/>
    <g id="line2d_76">
     <g>
      <use style="fill:#d62728;stroke:#d62728;" x="328.52" xlink:href="#m2f3b5f7639" y="234.291812"/>
     </g>
    </g>
    <g id="text_18">
     <!-- p3.2xlarge -->
     <defs>
      <path d="M 40.578125 39.3125 
Q 47.65625 37.796875 51.625 33 
Q 55.609375 28.21875 55.609375 21.1875 
Q 55.609375 10.40625 48.1875 4.484375 
Q 40.765625 -1.421875 27.09375 -1.421875 
Q 22.515625 -1.421875 17.65625 -0.515625 
Q 12.796875 0.390625 7.625 2.203125 
L 7.625 11.71875 
Q 11.71875 9.328125 16.59375 8.109375 
Q 21.484375 6.890625 26.8125 6.890625 
Q 36.078125 6.890625 40.9375 10.546875 
Q 45.796875 14.203125 45.796875 21.1875 
Q 45.796875 27.640625 41.28125 31.265625 
Q 36.765625 34.90625 28.71875 34.90625 
L 20.21875 34.90625 
L 20.21875 43.015625 
L 29.109375 43.015625 
Q 36.375 43.015625 40.234375 45.921875 
Q 44.09375 48.828125 44.09375 54.296875 
Q 44.09375 59.90625 40.109375 62.90625 
Q 36.140625 65.921875 28.71875 65.921875 
Q 24.65625 65.921875 20.015625 65.03125 
Q 15.375 64.15625 9.8125 62.3125 
L 9.8125 71.09375 
Q 15.4375 72.65625 20.34375 73.4375 
Q 25.25 74.21875 29.59375 74.21875 
Q 40.828125 74.21875 47.359375 69.109375 
Q 53.90625 64.015625 53.90625 55.328125 
Q 53.90625 49.265625 50.4375 45.09375 
Q 46.96875 40.921875 40.578125 39.3125 
z
" id="DejaVuSans-33"/>
     </defs>
     <g transform="translate(346.52 237.791812)scale(0.1 -0.1)">
      <use xlink:href="#DejaVuSans-70"/>
      <use x="63.476562" xlink:href="#DejaVuSans-33"/>
      <use x="127.099609" xlink:href="#DejaVuSans-2e"/>
      <use x="158.886719" xlink:href="#DejaVuSans-32"/>
      <use x="222.509766" xlink:href="#DejaVuSans-78"/>
      <use x="281.689453" xlink:href="#DejaVuSans-6c"/>
      <use x="309.472656" xlink:href="#DejaVuSans-61"/>
      <use x="370.751953" xlink:href="#DejaVuSans-72"/>
      <use x="411.849609" xlink:href="#DejaVuSans-67"/>
      <use x="475.326172" xlink:href="#DejaVuSans-65"/>
     </g>
    </g>
    <g id="LineCollection_25">
     <path d="M 323.52 248.969937 
L 333.52 248.969937 
" style="fill:none;stroke:#9467bd;stroke-width:1.5;"/>
    </g>
    <g id="LineCollection_26">
     <path d="M 328.52 253.969937 
L 328.52 243.969937 
" style="fill:none;stroke:#9467bd;stroke-width:1.5;"/>
    </g>
    <g id="line2d_77">
     <g>
      <use style="fill:#9467bd;stroke:#9467bd;" x="323.52" xlink:href="#m997090dd30" y="248.969937"/>
     </g>
    </g>
    <g id="line2d_78">
     <g>
      <use style="fill:#9467bd;stroke:#9467bd;" x="333.52" xlink:href="#m997090dd30" y="248.969937"/>
     </g>
    </g>
    <g id="line2d_79">
     <g>
      <use style="fill:#9467bd;stroke:#9467bd;" x="328.52" xlink:href="#m0fbd1e319b" y="253.969937"/>
     </g>
    </g>
    <g id="line2d_80">
     <g>
      <use style="fill:#9467bd;stroke:#9467bd;" x="328.52" xlink:href="#m0fbd1e319b" y="243.969937"/>
     </g>
    </g>
    <g id="line2d_81"/>
    <g id="line2d_82">
     <g>
      <use style="fill:#9467bd;stroke:#9467bd;" x="328.52" xlink:href="#m31d715de07" y="248.969937"/>
     </g>
    </g>
    <g id="text_19">
     <!-- c5.9xlarge -->
     <g transform="translate(346.52 252.469937)scale(0.1 -0.1)">
      <use xlink:href="#DejaVuSans-63"/>
      <use x="54.980469" xlink:href="#DejaVuSans-35"/>
      <use x="118.603516" xlink:href="#DejaVuSans-2e"/>
      <use x="150.390625" xlink:href="#DejaVuSans-39"/>
      <use x="214.013672" xlink:href="#DejaVuSans-78"/>
      <use x="273.193359" xlink:href="#DejaVuSans-6c"/>
      <use x="300.976562" xlink:href="#DejaVuSans-61"/>
      <use x="362.255859" xlink:href="#DejaVuSans-72"/>
      <use x="403.353516" xlink:href="#DejaVuSans-67"/>
      <use x="466.830078" xlink:href="#DejaVuSans-65"/>
     </g>
    </g>
    <g id="LineCollection_27">
     <path d="M 323.52 263.648062 
L 333.52 263.648062 
" style="fill:none;stroke:#8c564b;stroke-width:1.5;"/>
    </g>
    <g id="LineCollection_28">
     <path d="M 328.52 268.648062 
L 328.52 258.648062 
" style="fill:none;stroke:#8c564b;stroke-width:1.5;"/>
    </g>
    <g id="line2d_83">
     <g>
      <use style="fill:#8c564b;stroke:#8c564b;" x="323.52" xlink:href="#m9d8f36d1b2" y="263.648062"/>
     </g>
    </g>
    <g id="line2d_84">
     <g>
      <use style="fill:#8c564b;stroke:#8c564b;" x="333.52" xlink:href="#m9d8f36d1b2" y="263.648062"/>
     </g>
    </g>
    <g id="line2d_85">
     <g>
      <use style="fill:#8c564b;stroke:#8c564b;" x="328.52" xlink:href="#mde83767452" y="268.648062"/>
     </g>
    </g>
    <g id="line2d_86">
     <g>
      <use style="fill:#8c564b;stroke:#8c564b;" x="328.52" xlink:href="#mde83767452" y="258.648062"/>
     </g>
    </g>
    <g id="line2d_87"/>
    <g id="line2d_88">
     <g>
      <use style="fill:#8c564b;stroke:#8c564b;" x="328.52" xlink:href="#m50346d1870" y="263.648062"/>
     </g>
    </g>
    <g id="text_20">
     <!-- c5.2xlarge -->
     <g transform="translate(346.52 267.148062)scale(0.1 -0.1)">
      <use xlink:href="#DejaVuSans-63"/>
      <use x="54.980469" xlink:href="#DejaVuSans-35"/>
      <use x="118.603516" xlink:href="#DejaVuSans-2e"/>
      <use x="150.390625" xlink:href="#DejaVuSans-32"/>
      <use x="214.013672" xlink:href="#DejaVuSans-78"/>
      <use x="273.193359" xlink:href="#DejaVuSans-6c"/>
      <use x="300.976562" xlink:href="#DejaVuSans-61"/>
      <use x="362.255859" xlink:href="#DejaVuSans-72"/>
      <use x="403.353516" xlink:href="#DejaVuSans-67"/>
      <use x="466.830078" xlink:href="#DejaVuSans-65"/>
     </g>
    </g>
    <g id="LineCollection_29">
     <path d="M 323.52 278.326187 
L 333.52 278.326187 
" style="fill:none;stroke:#e377c2;stroke-width:1.5;"/>
    </g>
    <g id="LineCollection_30">
     <path d="M 328.52 283.326187 
L 328.52 273.326187 
" style="fill:none;stroke:#e377c2;stroke-width:1.5;"/>
    </g>
    <g id="line2d_89">
     <g>
      <use style="fill:#e377c2;stroke:#e377c2;" x="323.52" xlink:href="#md3218c857e" y="278.326187"/>
     </g>
    </g>
    <g id="line2d_90">
     <g>
      <use style="fill:#e377c2;stroke:#e377c2;" x="333.52" xlink:href="#md3218c857e" y="278.326187"/>
     </g>
    </g>
    <g id="line2d_91">
     <g>
      <use style="fill:#e377c2;stroke:#e377c2;" x="328.52" xlink:href="#m177b6c9279" y="283.326187"/>
     </g>
    </g>
    <g id="line2d_92">
     <g>
      <use style="fill:#e377c2;stroke:#e377c2;" x="328.52" xlink:href="#m177b6c9279" y="273.326187"/>
     </g>
    </g>
    <g id="line2d_93"/>
    <g id="line2d_94">
     <g>
      <use style="fill:#e377c2;stroke:#e377c2;" x="328.52" xlink:href="#m137828201b" y="278.326187"/>
     </g>
    </g>
    <g id="text_21">
     <!-- p2.xlarge -->
     <g transform="translate(346.52 281.826187)scale(0.1 -0.1)">
      <use xlink:href="#DejaVuSans-70"/>
      <use x="63.476562" xlink:href="#DejaVuSans-32"/>
      <use x="127.099609" xlink:href="#DejaVuSans-2e"/>
      <use x="158.886719" xlink:href="#DejaVuSans-78"/>
      <use x="218.066406" xlink:href="#DejaVuSans-6c"/>
      <use x="245.849609" xlink:href="#DejaVuSans-61"/>
      <use x="307.128906" xlink:href="#DejaVuSans-72"/>
      <use x="348.226562" xlink:href="#DejaVuSans-67"/>
      <use x="411.703125" xlink:href="#DejaVuSans-65"/>
     </g>
    </g>
    <g id="LineCollection_31">
     <path d="M 323.52 293.004312 
L 333.52 293.004312 
" style="fill:none;stroke:#7f7f7f;stroke-width:1.5;"/>
    </g>
    <g id="LineCollection_32">
     <path d="M 328.52 298.004312 
L 328.52 288.004312 
" style="fill:none;stroke:#7f7f7f;stroke-width:1.5;"/>
    </g>
    <g id="line2d_95">
     <g>
      <use style="fill:#7f7f7f;stroke:#7f7f7f;" x="323.52" xlink:href="#m8d746deeb9" y="293.004312"/>
     </g>
    </g>
    <g id="line2d_96">
     <g>
      <use style="fill:#7f7f7f;stroke:#7f7f7f;" x="333.52" xlink:href="#m8d746deeb9" y="293.004312"/>
     </g>
    </g>
    <g id="line2d_97">
     <g>
      <use style="fill:#7f7f7f;stroke:#7f7f7f;" x="328.52" xlink:href="#m56b8227e98" y="298.004312"/>
     </g>
    </g>
    <g id="line2d_98">
     <g>
      <use style="fill:#7f7f7f;stroke:#7f7f7f;" x="328.52" xlink:href="#m56b8227e98" y="288.004312"/>
     </g>
    </g>
    <g id="line2d_99"/>
    <g id="line2d_100">
     <g>
      <use style="fill:#7f7f7f;stroke:#7f7f7f;" x="328.52" xlink:href="#m382b86b221" y="293.004312"/>
     </g>
    </g>
    <g id="text_22">
     <!-- c5.12xlarge -->
     <g transform="translate(346.52 296.504312)scale(0.1 -0.1)">
      <use xlink:href="#DejaVuSans-63"/>
      <use x="54.980469" xlink:href="#DejaVuSans-35"/>
      <use x="118.603516" xlink:href="#DejaVuSans-2e"/>
      <use x="150.390625" xlink:href="#DejaVuSans-31"/>
      <use x="214.013672" xlink:href="#DejaVuSans-32"/>
      <use x="277.636719" xlink:href="#DejaVuSans-78"/>
      <use x="336.816406" xlink:href="#DejaVuSans-6c"/>
      <use x="364.599609" xlink:href="#DejaVuSans-61"/>
      <use x="425.878906" xlink:href="#DejaVuSans-72"/>
      <use x="466.976562" xlink:href="#DejaVuSans-67"/>
      <use x="530.453125" xlink:href="#DejaVuSans-65"/>
     </g>
    </g>
   </g>
  </g>
 </g>
 <defs>
  <clipPath id="p341c5a35d7">
   <rect height="266.112" width="357.12" x="57.6" y="41.472"/>
  </clipPath>
 </defs>
</svg>
